<svg width="154" height="48" viewBox="0 0 154 48" fill="none" xmlns="http://www.w3.org/2000/svg">
<path fill-rule="evenodd" clip-rule="evenodd" d="M48.2682 0.0012207H0V47.9999H48.2682V0.0012207ZM42.1385 28.4194C42.1385 35.2356 34.0605 40.7612 24.0958 40.7612C14.7307 40.7612 7.03202 35.8805 6.13953 29.6348C6.04427 28.9682 6.60314 28.4194 7.28158 28.4194H9.30736C9.98581 28.4194 10.5215 28.974 10.693 29.6254C11.6903 33.4129 17.3112 36.3137 24.0958 36.3137C31.5848 36.3137 37.6558 32.7793 37.6558 28.4194V12.9048C37.6558 12.2315 37.1059 11.6858 36.4274 11.6858H20.9537C20.2752 11.6858 19.7252 11.14 19.7252 10.4667V8.4573C19.7252 7.78405 20.2752 7.23828 20.9537 7.23828H40.9101C41.5885 7.23828 42.1385 7.78405 42.1385 8.4573V28.4194Z" fill="#404040"/>
<path fill-rule="evenodd" clip-rule="evenodd" d="M101.135 0.0012207H52.8672V47.9999H101.135V0.0012207ZM89.408 24C89.408 30.8166 83.851 36.3425 76.9962 36.3425C70.1413 36.3425 64.5844 30.8166 64.5844 24C64.5844 17.1834 70.1413 11.6575 76.9962 11.6575C83.851 11.6575 89.408 17.1834 89.408 24ZM93.8517 24C93.8517 33.2571 86.3052 40.7614 76.9962 40.7614C67.6871 40.7614 60.1406 33.2571 60.1406 24C60.1406 14.7429 67.6871 7.23853 76.9962 7.23853C86.3052 7.23853 93.8517 14.7429 93.8517 24Z" fill="#404040"/>
<path fill-rule="evenodd" clip-rule="evenodd" d="M153.999 0H105.73V47.9987H153.999V0ZM126.006 24.7085C126.399 24.3175 126.399 23.6814 126.006 23.2904L113.721 11.0738C113.328 10.6828 113.328 10.0466 113.721 9.6556L115.446 7.94057C115.836 7.55268 116.466 7.55267 116.856 7.94056L129.156 20.1725C129.547 20.5605 130.177 20.5604 130.567 20.1725L142.868 7.93763C143.258 7.54965 143.888 7.54965 144.278 7.93763L146.003 9.65284C146.396 10.0438 146.396 10.6799 146.003 11.0709L133.717 23.29C133.324 23.681 133.324 24.3172 133.718 24.7081L146.006 36.9279C146.399 37.3189 146.399 37.9551 146.006 38.3461L144.281 40.0611C143.891 40.449 143.261 40.449 142.871 40.0611L130.567 27.826C130.177 27.4381 129.547 27.4381 129.157 27.8261L116.856 40.0612C116.466 40.4492 115.835 40.4492 115.445 40.0612L113.721 38.346C113.328 37.955 113.328 37.3189 113.721 36.928L126.006 24.7085Z" fill="#404040"/>
</svg>
